<?xml version="1.0" standalone="no"?>
<!DOCTYPE svg PUBLIC "-//W3C//DTD SVG 20010904//EN"
 "http://www.w3.org/TR/2001/REC-SVG-20010904/DTD/svg10.dtd">
<svg version="1.0" xmlns="http://www.w3.org/2000/svg"
 width="125.000000pt" height="126.000000pt" viewBox="0 0 125.000000 126.000000"
 preserveAspectRatio="xMidYMid meet">
<metadata>
Created by potrace 1.16, written by Peter Selinger 2001-2019
</metadata>
<g transform="translate(0.000000,126.000000) scale(0.100000,-0.100000)"
fill="#000000" stroke="none">
<path d="M602 1187 c-6 -7 -15 -25 -21 -40 -8 -20 -17 -27 -36 -27 -15 0 -35
-5 -47 -11 -20 -11 -19 -12 12 -44 27 -28 31 -37 25 -68 -10 -53 0 -60 46 -36
37 19 42 19 64 5 44 -29 58 -21 53 27 -4 36 -1 46 25 74 35 37 32 44 -20 52
-31 5 -42 13 -58 44 -22 40 -27 43 -43 24z"/>
<path d="M400 840 c-19 -19 -20 -33 -20 -394 0 -409 -3 -386 58 -386 71 1 71
0 74 134 l3 121 100 0 100 0 3 -123 c1 -67 6 -122 10 -123 54 -7 97 -7 113 2
19 10 20 22 17 379 -3 346 -4 369 -22 389 -18 20 -29 21 -218 21 -185 0 -199
-1 -218 -20z"/>
<path d="M169 571 c-24 -19 -24 -20 -24 -240 0 -210 1 -221 21 -241 25 -26
146 -41 159 -20 4 7 7 117 6 245 0 128 -1 242 -1 254 0 19 -5 21 -69 21 -53 0
-74 -4 -92 -19z"/>
<path d="M900 331 l0 -259 30 -7 c50 -11 118 5 140 33 18 23 20 41 20 232 0
195 -1 209 -21 234 -19 24 -26 26 -95 26 l-74 0 0 -259z"/>
<path d="M557 274 c-4 -4 -7 -51 -7 -105 l0 -98 34 -7 c19 -3 48 -3 66 1 l31
7 -3 101 -3 102 -55 3 c-31 2 -59 0 -63 -4z"/>
</g>
</svg>
